<?xml version="1.0" encoding="utf-8"?>
<!-- Generator: Adobe Illustrator 23.0.1, SVG Export Plug-In . SVG Version: 6.00 Build 0)  -->
<svg version="1.1" id="Layer_1" xmlns="http://www.w3.org/2000/svg" xmlns:xlink="http://www.w3.org/1999/xlink" x="0px" y="0px"
	 viewBox="0 0 300 300" style="enable-background:new 0 0 300 300;" xml:space="preserve">
<style type="text/css">
	.st0{fill-rule:evenodd;clip-rule:evenodd;}
	.st1{fill-rule:evenodd;clip-rule:evenodd;fill:#458DB4;}
	.st2{fill-rule:evenodd;clip-rule:evenodd;fill:#344B80;}
	.st3{fill-rule:evenodd;clip-rule:evenodd;fill:#E3C788;}
	.st4{fill-rule:evenodd;clip-rule:evenodd;fill:#FFFFFF;}
</style>
<title>megaman</title>
<desc>Created with Sketch.</desc>
<g id="Assets">
	<g id="megaman">
		<rect id="Rectangle-1" x="128.66" y="21.96" class="st0" width="8.54" height="8.54"/>
		<rect id="Rectangle-1-Copy-116" x="188.41" y="90.25" class="st0" width="8.54" height="8.54"/>
		<rect id="Rectangle-1-Copy-162" x="188.41" y="124.39" class="st0" width="8.54" height="8.54"/>
		<rect id="Rectangle-1-Copy-164" x="179.88" y="124.39" class="st0" width="8.54" height="8.54"/>
		<rect id="Rectangle-1-Copy-165" x="171.34" y="132.93" class="st0" width="8.54" height="8.54"/>
		<rect id="Rectangle-1-Copy-166" x="171.34" y="141.46" class="st0" width="8.54" height="8.54"/>
		<rect id="Rectangle-1-Copy-167" x="171.34" y="150" class="st0" width="8.54" height="8.54"/>
		<rect id="Rectangle-1-Copy-193" x="171.34" y="158.54" class="st1" width="8.54" height="8.54"/>
		<rect id="Rectangle-1-Copy-208" x="145.73" y="158.54" class="st2" width="8.54" height="8.54"/>
		<rect id="Rectangle-1-Copy-216" x="145.73" y="167.07" class="st2" width="8.54" height="8.54"/>
		<rect id="Rectangle-1-Copy-223" x="145.73" y="175.61" class="st2" width="8.54" height="8.54"/>
		<rect id="Rectangle-1-Copy-211" x="120.12" y="158.54" class="st2" width="8.54" height="8.54"/>
		<rect id="Rectangle-1-Copy-217" x="120.12" y="167.07" class="st2" width="8.54" height="8.54"/>
		<rect id="Rectangle-1-Copy-239" x="120.12" y="209.75" class="st2" width="8.54" height="8.54"/>
		<rect id="Rectangle-1-Copy-242" x="120.12" y="218.29" class="st2" width="8.54" height="8.54"/>
		<rect id="Rectangle-1-Copy-246" x="120.12" y="226.82" class="st2" width="8.54" height="8.54"/>
		<rect id="Rectangle-1-Copy-249" x="120.12" y="235.36" class="st2" width="8.54" height="8.54"/>
		<rect id="Rectangle-1-Copy-252" x="120.12" y="243.9" class="st2" width="8.54" height="8.54"/>
		<rect id="Rectangle-1-Copy-245" x="128.66" y="218.29" class="st2" width="8.54" height="8.54"/>
		<rect id="Rectangle-1-Copy-247" x="128.66" y="226.82" class="st2" width="8.54" height="8.54"/>
		<rect id="Rectangle-1-Copy-250" x="128.66" y="235.36" class="st2" width="8.54" height="8.54"/>
		<rect id="Rectangle-1-Copy-253" x="128.66" y="243.9" class="st2" width="8.54" height="8.54"/>
		<rect id="Rectangle-1-Copy-224" x="120.12" y="175.61" class="st2" width="8.54" height="8.54"/>
		<rect id="Rectangle-1-Copy-214" x="103.05" y="158.54" class="st2" width="8.54" height="8.54"/>
		<rect id="Rectangle-1-Copy-218" x="103.05" y="167.07" class="st2" width="8.54" height="8.54"/>
		<rect id="Rectangle-1-Copy-240" x="103.05" y="209.75" class="st2" width="8.54" height="8.54"/>
		<rect id="Rectangle-1-Copy-243" x="103.05" y="218.29" class="st2" width="8.54" height="8.54"/>
		<rect id="Rectangle-1-Copy-196" x="171.34" y="167.07" class="st1" width="8.54" height="8.54"/>
		<rect id="Rectangle-1-Copy-168" x="179.88" y="150" class="st0" width="8.54" height="8.54"/>
		<rect id="Rectangle-1-Copy-194" x="179.88" y="158.54" class="st1" width="8.54" height="8.54"/>
		<rect id="Rectangle-1-Copy-209" x="154.27" y="158.54" class="st2" width="8.54" height="8.54"/>
		<rect id="Rectangle-1-Copy-219" x="154.27" y="167.07" class="st2" width="8.54" height="8.54"/>
		<rect id="Rectangle-1-Copy-212" x="128.66" y="158.54" class="st2" width="8.54" height="8.54"/>
		<rect id="Rectangle-1-Copy-220" x="128.66" y="167.07" class="st2" width="8.54" height="8.54"/>
		<rect id="Rectangle-1-Copy-225" x="128.66" y="175.61" class="st2" width="8.54" height="8.54"/>
		<rect id="Rectangle-1-Copy-238" x="120.12" y="201.22" class="st2" width="8.54" height="8.54"/>
		<rect id="Rectangle-1-Copy-215" x="111.59" y="158.54" class="st2" width="8.54" height="8.54"/>
		<rect id="Rectangle-1-Copy-221" x="111.59" y="167.07" class="st2" width="8.54" height="8.54"/>
		<rect id="Rectangle-1-Copy-241" x="111.59" y="209.75" class="st2" width="8.54" height="8.54"/>
		<rect id="Rectangle-1-Copy-244" x="111.59" y="218.29" class="st2" width="8.54" height="8.54"/>
		<rect id="Rectangle-1-Copy-248" x="111.59" y="226.82" class="st2" width="8.54" height="8.54"/>
		<rect id="Rectangle-1-Copy-251" x="111.59" y="235.36" class="st2" width="8.54" height="8.54"/>
		<rect id="Rectangle-1-Copy-254" x="111.59" y="243.9" class="st2" width="8.54" height="8.54"/>
		<rect id="Rectangle-1-Copy-257" x="120.12" y="252.43" class="st2" width="8.54" height="8.54"/>
		<rect id="Rectangle-1-Copy-256" x="128.66" y="252.43" class="st2" width="8.54" height="8.54"/>
		<rect id="Rectangle-1-Copy-255" x="111.59" y="252.43" class="st2" width="8.54" height="8.54"/>
		<rect id="Rectangle-1-Copy-260" x="120.12" y="260.97" class="st2" width="8.54" height="8.54"/>
		<rect id="Rectangle-1-Copy-259" x="128.66" y="260.97" class="st2" width="8.54" height="8.54"/>
		<rect id="Rectangle-1-Copy-258" x="111.59" y="260.97" class="st2" width="8.54" height="8.54"/>
		<rect id="Rectangle-1-Copy-197" x="179.88" y="167.07" class="st1" width="8.54" height="8.54"/>
		<rect id="Rectangle-1-Copy-169" x="188.41" y="150" class="st0" width="8.54" height="8.54"/>
		<rect id="Rectangle-1-Copy-195" x="188.41" y="158.54" class="st1" width="8.54" height="8.54"/>
		<rect id="Rectangle-1-Copy-210" x="162.8" y="158.54" class="st2" width="8.54" height="8.54"/>
		<rect id="Rectangle-1-Copy-213" x="137.2" y="158.54" class="st2" width="8.54" height="8.54"/>
		<rect id="Rectangle-1-Copy-222" x="137.2" y="167.07" class="st2" width="8.54" height="8.54"/>
		<rect id="Rectangle-1-Copy-226" x="137.2" y="175.61" class="st2" width="8.54" height="8.54"/>
		<rect id="Rectangle-1-Copy-198" x="188.41" y="167.07" class="st2" width="8.54" height="8.54"/>
		<rect id="Rectangle-1-Copy-364" x="196.95" y="167.07" class="st2" width="8.54" height="8.54"/>
		<rect id="Rectangle-1-Copy-367" x="196.95" y="192.68" class="st2" width="8.54" height="8.54"/>
		<rect id="Rectangle-1-Copy-370" x="205.48" y="192.68" class="st2" width="8.54" height="8.54"/>
		<rect id="Rectangle-1-Copy-201" x="171.34" y="175.61" class="st1" width="8.54" height="8.54"/>
		<rect id="Rectangle-1-Copy-229" x="120.12" y="184.14" class="st1" width="8.54" height="8.54"/>
		<rect id="Rectangle-1-Copy-233" x="120.12" y="192.68" class="st1" width="8.54" height="8.54"/>
		<rect id="Rectangle-1-Copy-232" x="128.66" y="184.14" class="st1" width="8.54" height="8.54"/>
		<rect id="Rectangle-1-Copy-205" x="162.8" y="175.61" class="st1" width="8.54" height="8.54"/>
		<rect id="Rectangle-1-Copy-230" x="111.59" y="184.14" class="st1" width="8.54" height="8.54"/>
		<rect id="Rectangle-1-Copy-234" x="111.59" y="192.68" class="st1" width="8.54" height="8.54"/>
		<rect id="Rectangle-1-Copy-236" x="111.59" y="201.22" class="st1" width="8.54" height="8.54"/>
		<rect id="Rectangle-1-Copy-227" x="111.59" y="175.61" class="st1" width="8.54" height="8.54"/>
		<rect id="Rectangle-1-Copy-207" x="162.8" y="167.07" class="st1" width="8.54" height="8.54"/>
		<rect id="Rectangle-1-Copy-206" x="154.27" y="175.61" class="st1" width="8.54" height="8.54"/>
		<rect id="Rectangle-1-Copy-231" x="103.05" y="184.14" class="st1" width="8.54" height="8.54"/>
		<rect id="Rectangle-1-Copy-235" x="103.05" y="192.68" class="st1" width="8.54" height="8.54"/>
		<rect id="Rectangle-1-Copy-237" x="103.05" y="201.22" class="st1" width="8.54" height="8.54"/>
		<rect id="Rectangle-1-Copy-228" x="103.05" y="175.61" class="st1" width="8.54" height="8.54"/>
		<rect id="Rectangle-1-Copy-200" x="179.88" y="175.61" class="st2" width="8.54" height="8.54"/>
		<rect id="Rectangle-1-Copy-199" x="188.41" y="175.61" class="st2" width="8.54" height="8.54"/>
		<rect id="Rectangle-1-Copy-365" x="196.95" y="175.61" class="st2" width="8.54" height="8.54"/>
		<rect id="Rectangle-1-Copy-368" x="196.95" y="201.22" class="st2" width="8.54" height="8.54"/>
		<rect id="Rectangle-1-Copy-371" x="205.48" y="201.22" class="st2" width="8.54" height="8.54"/>
		<rect id="Rectangle-1-Copy-373" x="214.02" y="201.22" class="st2" width="8.54" height="8.54"/>
		<rect id="Rectangle-1-Copy-375" x="188.41" y="201.22" class="st2" width="8.54" height="8.54"/>
		<rect id="Rectangle-1-Copy-378" x="179.88" y="201.22" class="st2" width="8.54" height="8.54"/>
		<rect id="Rectangle-1-Copy-204" x="171.34" y="184.14" class="st2" width="8.54" height="8.54"/>
		<rect id="Rectangle-1-Copy-203" x="179.88" y="184.14" class="st2" width="8.54" height="8.54"/>
		<rect id="Rectangle-1-Copy-202" x="188.41" y="184.14" class="st2" width="8.54" height="8.54"/>
		<rect id="Rectangle-1-Copy-377" x="188.41" y="192.68" class="st2" width="8.54" height="8.54"/>
		<rect id="Rectangle-1-Copy-379" x="179.88" y="192.68" class="st2" width="8.54" height="8.54"/>
		<rect id="Rectangle-1-Copy-366" x="196.95" y="184.14" class="st2" width="8.54" height="8.54"/>
		<rect id="Rectangle-1-Copy-369" x="196.95" y="209.75" class="st2" width="8.54" height="8.54"/>
		<rect id="Rectangle-1-Copy-372" x="205.48" y="209.75" class="st2" width="8.54" height="8.54"/>
		<rect id="Rectangle-1-Copy-374" x="214.02" y="209.75" class="st2" width="8.54" height="8.54"/>
		<rect id="Rectangle-1-Copy-376" x="188.41" y="209.75" class="st2" width="8.54" height="8.54"/>
		<rect id="Rectangle-1-Copy-170" x="196.95" y="158.54" class="st0" width="8.54" height="8.54"/>
		<rect id="Rectangle-1-Copy-171" x="205.48" y="167.07" class="st0" width="8.54" height="8.54"/>
		<rect id="Rectangle-1-Copy-172" x="205.48" y="175.61" class="st0" width="8.54" height="8.54"/>
		<rect id="Rectangle-1-Copy-173" x="205.48" y="184.14" class="st0" width="8.54" height="8.54"/>
		<rect id="Rectangle-1-Copy-174" x="214.02" y="192.68" class="st0" width="8.54" height="8.54"/>
		<rect id="Rectangle-1-Copy-175" x="222.56" y="201.22" class="st0" width="8.54" height="8.54"/>
		<rect id="Rectangle-1-Copy-176" x="222.56" y="209.75" class="st0" width="8.54" height="8.54"/>
		<rect id="Rectangle-1-Copy-177" x="214.02" y="218.29" class="st0" width="8.54" height="8.54"/>
		<rect id="Rectangle-1-Copy-178" x="205.48" y="218.29" class="st0" width="8.54" height="8.54"/>
		<rect id="Rectangle-1-Copy-179" x="196.95" y="218.29" class="st0" width="8.54" height="8.54"/>
		<rect id="Rectangle-1-Copy-180" x="188.41" y="218.29" class="st0" width="8.54" height="8.54"/>
		<rect id="Rectangle-1-Copy-181" x="179.88" y="209.75" class="st0" width="8.54" height="8.54"/>
		<rect id="Rectangle-1-Copy-182" x="171.34" y="209.75" class="st0" width="8.54" height="8.54"/>
		<rect id="Rectangle-1-Copy-183" x="171.34" y="201.22" class="st0" width="8.54" height="8.54"/>
		<rect id="Rectangle-1-Copy-184" x="171.34" y="192.68" class="st0" width="8.54" height="8.54"/>
		<rect id="Rectangle-1-Copy-185" x="162.8" y="184.14" class="st0" width="8.54" height="8.54"/>
		<rect id="Rectangle-1-Copy-186" x="154.27" y="184.14" class="st0" width="8.54" height="8.54"/>
		<rect id="Rectangle-1-Copy-187" x="145.73" y="184.14" class="st0" width="8.54" height="8.54"/>
		<rect id="Rectangle-1-Copy-188" x="137.2" y="184.14" class="st0" width="8.54" height="8.54"/>
		<rect id="Rectangle-1-Copy-189" x="128.66" y="192.68" class="st0" width="8.54" height="8.54"/>
		<rect id="Rectangle-1-Copy-190" x="128.66" y="201.22" class="st0" width="8.54" height="8.54"/>
		<rect id="Rectangle-1-Copy-191" x="128.66" y="209.75" class="st0" width="8.54" height="8.54"/>
		<rect id="Rectangle-1-Copy-192" x="137.2" y="218.29" class="st0" width="8.54" height="8.54"/>
		<rect id="Rectangle-1-Copy-274" x="94.52" y="218.29" class="st0" width="8.54" height="8.54"/>
		<rect id="Rectangle-1-Copy-261" x="137.2" y="226.82" class="st0" width="8.54" height="8.54"/>
		<rect id="Rectangle-1-Copy-269" x="103.05" y="226.82" class="st0" width="8.54" height="8.54"/>
		<rect id="Rectangle-1-Copy-275" x="94.52" y="175.61" class="st0" width="8.54" height="8.54"/>
		<rect id="Rectangle-1-Copy-280" x="94.52" y="158.54" class="st0" width="8.54" height="8.54"/>
		<rect id="Rectangle-1-Copy-282" x="94.52" y="141.46" class="st0" width="8.54" height="8.54"/>
		<rect id="Rectangle-1-Copy-284" x="94.52" y="132.93" class="st0" width="8.54" height="8.54"/>
		<rect id="Rectangle-1-Copy-285" x="85.98" y="124.39" class="st0" width="8.54" height="8.54"/>
		<rect id="Rectangle-1-Copy-286" x="85.98" y="115.86" class="st0" width="8.54" height="8.54"/>
		<rect id="Rectangle-1-Copy-326" x="77.44" y="107.32" class="st0" width="8.54" height="8.54"/>
		<rect id="Rectangle-1-Copy-327" x="68.91" y="98.78" class="st0" width="8.54" height="8.54"/>
		<rect id="Rectangle-1-Copy-262" x="137.2" y="235.36" class="st0" width="8.54" height="8.54"/>
		<rect id="Rectangle-1-Copy-270" x="103.05" y="235.36" class="st0" width="8.54" height="8.54"/>
		<rect id="Rectangle-1-Copy-276" x="94.52" y="184.14" class="st0" width="8.54" height="8.54"/>
		<rect id="Rectangle-1-Copy-281" x="94.52" y="167.07" class="st0" width="8.54" height="8.54"/>
		<rect id="Rectangle-1-Copy-283" x="94.52" y="150" class="st0" width="8.54" height="8.54"/>
		<rect id="Rectangle-1-Copy-263" x="137.2" y="243.9" class="st0" width="8.54" height="8.54"/>
		<rect id="Rectangle-1-Copy-271" x="103.05" y="243.9" class="st0" width="8.54" height="8.54"/>
		<rect id="Rectangle-1-Copy-277" x="94.52" y="192.68" class="st0" width="8.54" height="8.54"/>
		<rect id="Rectangle-1-Copy-264" x="137.2" y="252.43" class="st0" width="8.54" height="8.54"/>
		<rect id="Rectangle-1-Copy-272" x="103.05" y="252.43" class="st0" width="8.54" height="8.54"/>
		<rect id="Rectangle-1-Copy-278" x="94.52" y="201.22" class="st0" width="8.54" height="8.54"/>
		<rect id="Rectangle-1-Copy-265" x="137.2" y="260.97" class="st0" width="8.54" height="8.54"/>
		<rect id="Rectangle-1-Copy-273" x="103.05" y="260.97" class="st0" width="8.54" height="8.54"/>
		<rect id="Rectangle-1-Copy-279" x="94.52" y="209.75" class="st0" width="8.54" height="8.54"/>
		<rect id="Rectangle-1-Copy-266" x="128.66" y="269.5" class="st0" width="8.54" height="8.54"/>
		<rect id="Rectangle-1-Copy-267" x="120.12" y="269.5" class="st0" width="8.54" height="8.54"/>
		<rect id="Rectangle-1-Copy-268" x="111.59" y="269.5" class="st0" width="8.54" height="8.54"/>
		<rect id="Rectangle-1-Copy-119" x="214.02" y="81.71" class="st0" width="8.54" height="8.54"/>
		<rect id="Rectangle-1-Copy-131" x="214.02" y="124.39" class="st0" width="8.54" height="8.54"/>
		<rect id="Rectangle-1-Copy-124" x="248.16" y="90.25" class="st0" width="8.54" height="8.54"/>
		<rect id="Rectangle-1-Copy-128" x="248.16" y="115.86" class="st0" width="8.54" height="8.54"/>
		<rect id="Rectangle-1-Copy-3" x="128.66" y="30.5" class="st0" width="8.54" height="8.54"/>
		<rect id="Rectangle-1-Copy-10" x="128.66" y="39.03" class="st2" width="8.54" height="8.54"/>
		<rect id="Rectangle-1-Copy-138" x="214.02" y="90.25" class="st2" width="8.54" height="8.54"/>
		<rect id="Rectangle-1-Copy-142" x="222.56" y="90.25" class="st2" width="8.54" height="8.54"/>
		<rect id="Rectangle-1-Copy-146" x="231.09" y="90.25" class="st2" width="8.54" height="8.54"/>
		<rect id="Rectangle-1-Copy-18" x="128.66" y="47.57" class="st2" width="8.54" height="8.54"/>
		<rect id="Rectangle-1-Copy-139" x="214.02" y="98.78" class="st2" width="8.54" height="8.54"/>
		<rect id="Rectangle-1-Copy-143" x="222.56" y="98.78" class="st1" width="8.54" height="8.54"/>
		<rect id="Rectangle-1-Copy-147" x="231.09" y="98.78" class="st1" width="8.54" height="8.54"/>
		<rect id="Rectangle-1-Copy-150" x="239.63" y="98.78" class="st1" width="8.54" height="8.54"/>
		<rect id="Rectangle-1-Copy-28" x="128.66" y="56.1" class="st2" width="8.54" height="8.54"/>
		<rect id="Rectangle-1-Copy-140" x="214.02" y="107.32" class="st2" width="8.54" height="8.54"/>
		<rect id="Rectangle-1-Copy-144" x="222.56" y="107.32" class="st2" width="8.54" height="8.54"/>
		<rect id="Rectangle-1-Copy-148" x="231.09" y="107.32" class="st2" width="8.54" height="8.54"/>
		<rect id="Rectangle-1-Copy-151" x="239.63" y="107.32" class="st2" width="8.54" height="8.54"/>
		<rect id="Rectangle-1-Copy-153" x="248.16" y="98.78" class="st0" width="8.54" height="8.54"/>
		<rect id="Rectangle-1-Copy-152" x="248.16" y="107.32" class="st0" width="8.54" height="8.54"/>
		<rect id="Rectangle-1-Copy-155" x="256.7" y="98.78" class="st1" width="8.54" height="8.54"/>
		<rect id="Rectangle-1-Copy-154" x="256.7" y="107.32" class="st2" width="8.54" height="8.54"/>
		<rect id="Rectangle-1-Copy-47" x="128.66" y="64.64" class="st2" width="8.54" height="8.54"/>
		<rect id="Rectangle-1-Copy-141" x="214.02" y="115.86" class="st2" width="8.54" height="8.54"/>
		<rect id="Rectangle-1-Copy-145" x="222.56" y="115.86" class="st2" width="8.54" height="8.54"/>
		<rect id="Rectangle-1-Copy-149" x="231.09" y="115.86" class="st2" width="8.54" height="8.54"/>
		<rect id="Rectangle-1-Copy-7" x="111.59" y="30.5" class="st0" width="8.54" height="8.54"/>
		<rect id="Rectangle-1-Copy-11" x="111.59" y="39.03" class="st2" width="8.54" height="8.54"/>
		<rect id="Rectangle-1-Copy-19" x="111.59" y="47.57" class="st2" width="8.54" height="8.54"/>
		<rect id="Rectangle-1-Copy-29" x="111.59" y="56.1" class="st2" width="8.54" height="8.54"/>
		<rect id="Rectangle-1-Copy-48" x="111.59" y="64.64" class="st2" width="8.54" height="8.54"/>
		<rect id="Rectangle-1-Copy-53" x="111.59" y="73.18" class="st2" width="8.54" height="8.54"/>
		<rect id="Rectangle-1-Copy-328" x="77.44" y="90.25" class="st2" width="8.54" height="8.54"/>
		<rect id="Rectangle-1-Copy-330" x="77.44" y="81.71" class="st2" width="8.54" height="8.54"/>
		<rect id="Rectangle-1-Copy-58" x="120.12" y="73.18" class="st3" width="8.54" height="8.54"/>
		<rect id="Rectangle-1-Copy-59" x="111.59" y="81.71" class="st3" width="8.54" height="8.54"/>
		<rect id="Rectangle-1-Copy-111" x="154.27" y="81.71" class="st3" width="8.54" height="8.54"/>
		<rect id="Rectangle-1-Copy-60" x="111.59" y="90.25" class="st3" width="8.54" height="8.54"/>
		<rect id="Rectangle-1-Copy-112" x="154.27" y="90.25" class="st3" width="8.54" height="8.54"/>
		<rect id="Rectangle-1-Copy-61" x="111.59" y="98.78" class="st3" width="8.54" height="8.54"/>
		<rect id="Rectangle-1-Copy-113" x="154.27" y="98.78" class="st3" width="8.54" height="8.54"/>
		<rect id="Rectangle-1-Copy-114" x="162.8" y="107.32" class="st3" width="8.54" height="8.54"/>
		<rect id="Rectangle-1-Copy-62" x="120.12" y="98.78" class="st3" width="8.54" height="8.54"/>
		<rect id="Rectangle-1-Copy-110" x="171.34" y="98.78" class="st3" width="8.54" height="8.54"/>
		<rect id="Rectangle-1-Copy-75" x="120.12" y="107.32" class="st3" width="8.54" height="8.54"/>
		<rect id="Rectangle-1-Copy-77" x="120.12" y="115.86" class="st3" width="8.54" height="8.54"/>
		<rect id="Rectangle-1-Copy-78" x="128.66" y="124.39" class="st3" width="8.54" height="8.54"/>
		<rect id="Rectangle-1-Copy-76" x="128.66" y="107.32" class="st3" width="8.54" height="8.54"/>
		<rect id="Rectangle-1-Copy-9" x="103.05" y="39.03" class="st0" width="8.54" height="8.54"/>
		<rect id="Rectangle-1-Copy-20" x="103.05" y="47.57" class="st2" width="8.54" height="8.54"/>
		<rect id="Rectangle-1-Copy-30" x="103.05" y="56.1" class="st2" width="8.54" height="8.54"/>
		<rect id="Rectangle-1-Copy-79" x="103.05" y="81.71" class="st2" width="8.54" height="8.54"/>
		<rect id="Rectangle-1-Copy-49" x="103.05" y="64.64" class="st2" width="8.54" height="8.54"/>
		<rect id="Rectangle-1-Copy-80" x="103.05" y="90.25" class="st2" width="8.54" height="8.54"/>
		<rect id="Rectangle-1-Copy-54" x="103.05" y="73.18" class="st2" width="8.54" height="8.54"/>
		<rect id="Rectangle-1-Copy-329" x="68.91" y="90.25" class="st2" width="8.54" height="8.54"/>
		<rect id="Rectangle-1-Copy-331" x="68.91" y="81.71" class="st2" width="8.54" height="8.54"/>
		<rect id="Rectangle-1-Copy-350" x="60.37" y="81.71" class="st2" width="8.54" height="8.54"/>
		<rect id="Rectangle-1-Copy-352" x="51.84" y="73.18" class="st2" width="8.54" height="8.54"/>
		<rect id="Rectangle-1-Copy-333" x="77.44" y="73.18" class="st2" width="8.54" height="8.54"/>
		<rect id="Rectangle-1-Copy-332" x="68.91" y="73.18" class="st2" width="8.54" height="8.54"/>
		<rect id="Rectangle-1-Copy-351" x="60.37" y="73.18" class="st2" width="8.54" height="8.54"/>
		<rect id="Rectangle-1-Copy-353" x="51.84" y="64.64" class="st2" width="8.54" height="8.54"/>
		<rect id="Rectangle-1-Copy-358" x="43.3" y="64.64" class="st2" width="8.54" height="8.54"/>
		<rect id="Rectangle-1-Copy-355" x="51.84" y="47.57" class="st2" width="8.54" height="8.54"/>
		<rect id="Rectangle-1-Copy-359" x="43.3" y="47.57" class="st2" width="8.54" height="8.54"/>
		<rect id="Rectangle-1-Copy-362" x="34.76" y="47.57" class="st2" width="8.54" height="8.54"/>
		<rect id="Rectangle-1-Copy-357" x="60.37" y="47.57" class="st2" width="8.54" height="8.54"/>
		<rect id="Rectangle-1-Copy-354" x="51.84" y="56.1" class="st2" width="8.54" height="8.54"/>
		<rect id="Rectangle-1-Copy-360" x="43.3" y="56.1" class="st2" width="8.54" height="8.54"/>
		<rect id="Rectangle-1-Copy-363" x="34.76" y="56.1" class="st2" width="8.54" height="8.54"/>
		<rect id="Rectangle-1-Copy-356" x="51.84" y="39.03" class="st2" width="8.54" height="8.54"/>
		<rect id="Rectangle-1-Copy-361" x="43.3" y="39.03" class="st2" width="8.54" height="8.54"/>
		<rect id="Rectangle-1-Copy-334" x="68.91" y="64.64" class="st2" width="8.54" height="8.54"/>
		<rect id="Rectangle-1-Copy-81" x="103.05" y="98.78" class="st2" width="8.54" height="8.54"/>
		<rect id="Rectangle-1-Copy-82" x="111.59" y="107.32" class="st2" width="8.54" height="8.54"/>
		<rect id="Rectangle-1-Copy-26" x="94.52" y="47.57" class="st0" width="8.54" height="8.54"/>
		<rect id="Rectangle-1-Copy-88" x="85.98" y="64.64" class="st0" width="8.54" height="8.54"/>
		<rect id="Rectangle-1-Copy-335" x="77.44" y="64.64" class="st0" width="8.54" height="8.54"/>
		<rect id="Rectangle-1-Copy-336" x="68.91" y="56.1" class="st0" width="8.54" height="8.54"/>
		<rect id="Rectangle-1-Copy-338" x="60.37" y="56.1" class="st0" width="8.54" height="8.54"/>
		<rect id="Rectangle-1-Copy-339" x="60.37" y="64.64" class="st0" width="8.54" height="8.54"/>
		<rect id="Rectangle-1-Copy-337" x="68.91" y="47.57" class="st0" width="8.54" height="8.54"/>
		<rect id="Rectangle-1-Copy-340" x="60.37" y="39.03" class="st0" width="8.54" height="8.54"/>
		<rect id="Rectangle-1-Copy-341" x="51.84" y="30.5" class="st0" width="8.54" height="8.54"/>
		<rect id="Rectangle-1-Copy-342" x="43.3" y="30.5" class="st0" width="8.54" height="8.54"/>
		<rect id="Rectangle-1-Copy-343" x="34.76" y="39.03" class="st0" width="8.54" height="8.54"/>
		<rect id="Rectangle-1-Copy-344" x="26.23" y="47.57" class="st0" width="8.54" height="8.54"/>
		<rect id="Rectangle-1-Copy-345" x="26.23" y="56.1" class="st0" width="8.54" height="8.54"/>
		<rect id="Rectangle-1-Copy-346" x="34.76" y="64.64" class="st0" width="8.54" height="8.54"/>
		<rect id="Rectangle-1-Copy-347" x="43.3" y="73.18" class="st0" width="8.54" height="8.54"/>
		<rect id="Rectangle-1-Copy-348" x="51.84" y="81.71" class="st0" width="8.54" height="8.54"/>
		<rect id="Rectangle-1-Copy-349" x="60.37" y="90.25" class="st0" width="8.54" height="8.54"/>
		<rect id="Rectangle-1-Copy-27" x="94.52" y="56.1" class="st0" width="8.54" height="8.54"/>
		<rect id="Rectangle-1-Copy-89" x="85.98" y="73.18" class="st0" width="8.54" height="8.54"/>
		<rect id="Rectangle-1-Copy-90" x="85.98" y="81.71" class="st0" width="8.54" height="8.54"/>
		<rect id="Rectangle-1-Copy-83" x="103.05" y="107.32" class="st0" width="8.54" height="8.54"/>
		<rect id="Rectangle-1-Copy-86" x="94.52" y="98.78" class="st0" width="8.54" height="8.54"/>
		<rect id="Rectangle-1-Copy-87" x="94.52" y="90.25" class="st0" width="8.54" height="8.54"/>
		<rect id="Rectangle-1-Copy-84" x="111.59" y="115.86" class="st0" width="8.54" height="8.54"/>
		<rect id="Rectangle-1-Copy-85" x="120.12" y="124.39" class="st0" width="8.54" height="8.54"/>
		<rect id="Rectangle-1-Copy" x="137.2" y="21.96" class="st0" width="8.54" height="8.54"/>
		<rect id="Rectangle-1-Copy-117" x="196.95" y="90.25" class="st0" width="8.54" height="8.54"/>
		<rect id="Rectangle-1-Copy-163" x="196.95" y="124.39" class="st0" width="8.54" height="8.54"/>
		<rect id="Rectangle-1-Copy-120" x="222.56" y="81.71" class="st0" width="8.54" height="8.54"/>
		<rect id="Rectangle-1-Copy-132" x="222.56" y="124.39" class="st0" width="8.54" height="8.54"/>
		<rect id="Rectangle-1-Copy-125" x="256.7" y="90.25" class="st0" width="8.54" height="8.54"/>
		<rect id="Rectangle-1-Copy-129" x="256.7" y="115.86" class="st0" width="8.54" height="8.54"/>
		<rect id="Rectangle-1-Copy-4" x="137.2" y="30.5" class="st1" width="8.54" height="8.54"/>
		<rect id="Rectangle-1-Copy-12" x="137.2" y="39.03" class="st0" width="8.54" height="8.54"/>
		<rect id="Rectangle-1-Copy-21" x="137.2" y="47.57" class="st2" width="8.54" height="8.54"/>
		<rect id="Rectangle-1-Copy-31" x="137.2" y="56.1" class="st2" width="8.54" height="8.54"/>
		<rect id="Rectangle-1-Copy-50" x="137.2" y="64.64" class="st2" width="8.54" height="8.54"/>
		<rect id="Rectangle-1-Copy-46" x="145.73" y="64.64" class="st2" width="8.54" height="8.54"/>
		<rect id="Rectangle-1-Copy-8" x="120.12" y="30.5" class="st0" width="8.54" height="8.54"/>
		<rect id="Rectangle-1-Copy-13" x="120.12" y="39.03" class="st2" width="8.54" height="8.54"/>
		<rect id="Rectangle-1-Copy-22" x="120.12" y="47.57" class="st2" width="8.54" height="8.54"/>
		<rect id="Rectangle-1-Copy-32" x="120.12" y="56.1" class="st2" width="8.54" height="8.54"/>
		<rect id="Rectangle-1-Copy-51" x="120.12" y="64.64" class="st2" width="8.54" height="8.54"/>
		<rect id="Rectangle-1-Copy-2" x="145.73" y="21.96" class="st0" width="8.54" height="8.54"/>
		<rect id="Rectangle-1-Copy-118" x="205.48" y="90.25" class="st0" width="8.54" height="8.54"/>
		<rect id="Rectangle-1-Copy-121" x="231.09" y="81.71" class="st0" width="8.54" height="8.54"/>
		<rect id="Rectangle-1-Copy-133" x="231.09" y="124.39" class="st0" width="8.54" height="8.54"/>
		<rect id="Rectangle-1-Copy-122" x="239.63" y="81.71" class="st0" width="8.54" height="8.54"/>
		<rect id="Rectangle-1-Copy-134" x="239.63" y="124.39" class="st0" width="8.54" height="8.54"/>
		<rect id="Rectangle-1-Copy-126" x="265.24" y="98.78" class="st0" width="8.54" height="8.54"/>
		<rect id="Rectangle-1-Copy-123" x="239.63" y="90.25" class="st0" width="8.54" height="8.54"/>
		<rect id="Rectangle-1-Copy-130" x="239.63" y="115.86" class="st0" width="8.54" height="8.54"/>
		<rect id="Rectangle-1-Copy-127" x="265.24" y="107.32" class="st0" width="8.54" height="8.54"/>
		<rect id="Rectangle-1-Copy-5" x="145.73" y="30.5" class="st1" width="8.54" height="8.54"/>
		<rect id="Rectangle-1-Copy-14" x="145.73" y="39.03" class="st1" width="8.54" height="8.54"/>
		<rect id="Rectangle-1-Copy-23" x="145.73" y="47.57" class="st0" width="8.54" height="8.54"/>
		<rect id="Rectangle-1-Copy-33" x="145.73" y="56.1" class="st0" width="8.54" height="8.54"/>
		<rect id="Rectangle-1-Copy-6" x="154.27" y="30.5" class="st0" width="8.54" height="8.54"/>
		<rect id="Rectangle-1-Copy-15" x="154.27" y="39.03" class="st1" width="8.54" height="8.54"/>
		<rect id="Rectangle-1-Copy-24" x="154.27" y="47.57" class="st0" width="8.54" height="8.54"/>
		<rect id="Rectangle-1-Copy-44" x="154.27" y="64.64" class="st0" width="8.54" height="8.54"/>
		<rect id="Rectangle-1-Copy-34" x="154.27" y="56.1" class="st1" width="8.54" height="8.54"/>
		<rect id="Rectangle-1-Copy-16" x="162.8" y="39.03" class="st0" width="8.54" height="8.54"/>
		<rect id="Rectangle-1-Copy-25" x="162.8" y="47.57" class="st0" width="8.54" height="8.54"/>
		<rect id="Rectangle-1-Copy-45" x="162.8" y="64.64" class="st0" width="8.54" height="8.54"/>
		<rect id="Rectangle-1-Copy-35" x="162.8" y="56.1" class="st1" width="8.54" height="8.54"/>
		<rect id="Rectangle-1-Copy-17" x="171.34" y="47.57" class="st0" width="8.54" height="8.54"/>
		<rect id="Rectangle-1-Copy-36" x="171.34" y="56.1" class="st2" width="8.54" height="8.54"/>
		<rect id="Rectangle-1-Copy-38" x="171.34" y="64.64" class="st2" width="8.54" height="8.54"/>
		<rect id="Rectangle-1-Copy-42" x="162.8" y="73.18" class="st2" width="8.54" height="8.54"/>
		<rect id="Rectangle-1-Copy-43" x="154.27" y="73.18" class="st2" width="8.54" height="8.54"/>
		<rect id="Rectangle-1-Copy-55" x="145.73" y="73.18" class="st4" width="8.54" height="8.54"/>
		<rect id="Rectangle-1-Copy-70" x="145.73" y="98.78" class="st4" width="8.54" height="8.54"/>
		<rect id="Rectangle-1-Copy-65" x="145.73" y="81.71" class="st0" width="8.54" height="8.54"/>
		<rect id="Rectangle-1-Copy-104" x="162.8" y="81.71" class="st0" width="8.54" height="8.54"/>
		<rect id="Rectangle-1-Copy-91" x="145.73" y="107.32" class="st0" width="8.54" height="8.54"/>
		<rect id="Rectangle-1-Copy-115" x="154.27" y="107.32" class="st0" width="8.54" height="8.54"/>
		<rect id="Rectangle-1-Copy-68" x="145.73" y="90.25" class="st0" width="8.54" height="8.54"/>
		<rect id="Rectangle-1-Copy-105" x="162.8" y="90.25" class="st0" width="8.54" height="8.54"/>
		<rect id="Rectangle-1-Copy-92" x="145.73" y="115.86" class="st0" width="8.54" height="8.54"/>
		<rect id="Rectangle-1-Copy-100" x="154.27" y="115.86" class="st0" width="8.54" height="8.54"/>
		<rect id="Rectangle-1-Copy-98" x="162.8" y="115.86" class="st0" width="8.54" height="8.54"/>
		<rect id="Rectangle-1-Copy-99" x="171.34" y="107.32" class="st0" width="8.54" height="8.54"/>
		<rect id="Rectangle-1-Copy-102" x="179.88" y="98.78" class="st0" width="8.54" height="8.54"/>
		<rect id="Rectangle-1-Copy-103" x="179.88" y="90.25" class="st0" width="8.54" height="8.54"/>
		<rect id="Rectangle-1-Copy-96" x="145.73" y="124.39" class="st0" width="8.54" height="8.54"/>
		<rect id="Rectangle-1-Copy-101" x="154.27" y="124.39" class="st0" width="8.54" height="8.54"/>
		<rect id="Rectangle-1-Copy-56" x="137.2" y="73.18" class="st4" width="8.54" height="8.54"/>
		<rect id="Rectangle-1-Copy-71" x="137.2" y="98.78" class="st4" width="8.54" height="8.54"/>
		<rect id="Rectangle-1-Copy-72" x="128.66" y="98.78" class="st4" width="8.54" height="8.54"/>
		<rect id="Rectangle-1-Copy-66" x="137.2" y="81.71" class="st0" width="8.54" height="8.54"/>
		<rect id="Rectangle-1-Copy-93" x="137.2" y="107.32" class="st0" width="8.54" height="8.54"/>
		<rect id="Rectangle-1-Copy-69" x="137.2" y="90.25" class="st0" width="8.54" height="8.54"/>
		<rect id="Rectangle-1-Copy-94" x="137.2" y="115.86" class="st0" width="8.54" height="8.54"/>
		<rect id="Rectangle-1-Copy-97" x="137.2" y="124.39" class="st0" width="8.54" height="8.54"/>
		<rect id="Rectangle-1-Copy-95" x="128.66" y="115.86" class="st0" width="8.54" height="8.54"/>
		<rect id="Rectangle-1-Copy-57" x="128.66" y="73.18" class="st4" width="8.54" height="8.54"/>
		<rect id="Rectangle-1-Copy-106" x="171.34" y="73.18" class="st4" width="8.54" height="8.54"/>
		<rect id="Rectangle-1-Copy-67" x="128.66" y="81.71" class="st4" width="8.54" height="8.54"/>
		<rect id="Rectangle-1-Copy-63" x="120.12" y="81.71" class="st4" width="8.54" height="8.54"/>
		<rect id="Rectangle-1-Copy-73" x="128.66" y="81.71" class="st4" width="8.54" height="8.54"/>
		<rect id="Rectangle-1-Copy-107" x="171.34" y="81.71" class="st4" width="8.54" height="8.54"/>
		<rect id="Rectangle-1-Copy-64" x="120.12" y="90.25" class="st4" width="8.54" height="8.54"/>
		<rect id="Rectangle-1-Copy-74" x="128.66" y="90.25" class="st4" width="8.54" height="8.54"/>
		<rect id="Rectangle-1-Copy-108" x="171.34" y="90.25" class="st4" width="8.54" height="8.54"/>
		<rect id="Rectangle-1-Copy-109" x="162.8" y="98.78" class="st4" width="8.54" height="8.54"/>
		<rect id="Rectangle-1-Copy-37" x="179.88" y="56.1" class="st0" width="8.54" height="8.54"/>
		<rect id="Rectangle-1-Copy-135" x="205.48" y="98.78" class="st0" width="8.54" height="8.54"/>
		<rect id="Rectangle-1-Copy-40" x="179.88" y="73.18" class="st0" width="8.54" height="8.54"/>
		<rect id="Rectangle-1-Copy-136" x="205.48" y="115.86" class="st0" width="8.54" height="8.54"/>
		<rect id="Rectangle-1-Copy-39" x="179.88" y="64.64" class="st0" width="8.54" height="8.54"/>
		<rect id="Rectangle-1-Copy-137" x="205.48" y="107.32" class="st0" width="8.54" height="8.54"/>
		<rect id="Rectangle-1-Copy-41" x="179.88" y="81.71" class="st0" width="8.54" height="8.54"/>
		<rect x="94.52" y="64.64" class="st1" width="8.54" height="8.54"/>
		<rect id="Rectangle-1-Copy-156" x="196.95" y="98.78" class="st1" width="8.54" height="8.54"/>
		<rect id="Rectangle-1-Copy-159" x="188.41" y="98.78" class="st1" width="8.54" height="8.54"/>
		<rect x="94.52" y="73.18" class="st1" width="8.54" height="8.54"/>
		<rect id="Rectangle-1-Copy-157" x="196.95" y="107.32" class="st1" width="8.54" height="8.54"/>
		<rect id="Rectangle-1-Copy-160" x="188.41" y="107.32" class="st1" width="8.54" height="8.54"/>
		<rect id="Rectangle-1-Copy-287" x="179.88" y="107.32" class="st1" width="8.54" height="8.54"/>
		<rect id="Rectangle-1-Copy-289" x="171.34" y="115.86" class="st1" width="8.54" height="8.54"/>
		<rect id="Rectangle-1-Copy-291" x="162.8" y="124.39" class="st1" width="8.54" height="8.54"/>
		<rect id="Rectangle-1-Copy-52" x="94.52" y="81.71" class="st1" width="8.54" height="8.54"/>
		<rect id="Rectangle-1-Copy-158" x="196.95" y="115.86" class="st1" width="8.54" height="8.54"/>
		<rect id="Rectangle-1-Copy-161" x="188.41" y="115.86" class="st1" width="8.54" height="8.54"/>
		<rect id="Rectangle-1-Copy-288" x="179.88" y="115.86" class="st1" width="8.54" height="8.54"/>
		<rect id="Rectangle-1-Copy-290" x="171.34" y="124.39" class="st1" width="8.54" height="8.54"/>
		<rect id="Rectangle-1-Copy-292" x="162.8" y="132.93" class="st1" width="8.54" height="8.54"/>
		<rect id="Rectangle-1-Copy-295" x="154.27" y="132.93" class="st1" width="8.54" height="8.54"/>
		<rect id="Rectangle-1-Copy-293" x="162.8" y="141.46" class="st1" width="8.54" height="8.54"/>
		<rect id="Rectangle-1-Copy-296" x="154.27" y="141.46" class="st1" width="8.54" height="8.54"/>
		<rect id="Rectangle-1-Copy-294" x="162.8" y="150" class="st1" width="8.54" height="8.54"/>
		<rect id="Rectangle-1-Copy-297" x="154.27" y="150" class="st1" width="8.54" height="8.54"/>
		<rect id="Rectangle-1-Copy-300" x="145.73" y="132.93" class="st1" width="8.54" height="8.54"/>
		<rect id="Rectangle-1-Copy-299" x="145.73" y="141.46" class="st1" width="8.54" height="8.54"/>
		<rect id="Rectangle-1-Copy-298" x="145.73" y="150" class="st1" width="8.54" height="8.54"/>
		<rect id="Rectangle-1-Copy-303" x="137.2" y="132.93" class="st1" width="8.54" height="8.54"/>
		<rect id="Rectangle-1-Copy-302" x="137.2" y="141.46" class="st1" width="8.54" height="8.54"/>
		<rect id="Rectangle-1-Copy-301" x="137.2" y="150" class="st1" width="8.54" height="8.54"/>
		<rect id="Rectangle-1-Copy-306" x="128.66" y="132.93" class="st1" width="8.54" height="8.54"/>
		<rect id="Rectangle-1-Copy-305" x="128.66" y="141.46" class="st1" width="8.54" height="8.54"/>
		<rect id="Rectangle-1-Copy-304" x="128.66" y="150" class="st1" width="8.54" height="8.54"/>
		<rect id="Rectangle-1-Copy-309" x="120.12" y="132.93" class="st1" width="8.54" height="8.54"/>
		<rect id="Rectangle-1-Copy-308" x="120.12" y="141.46" class="st1" width="8.54" height="8.54"/>
		<rect id="Rectangle-1-Copy-307" x="120.12" y="150" class="st1" width="8.54" height="8.54"/>
		<rect id="Rectangle-1-Copy-312" x="111.59" y="132.93" class="st1" width="8.54" height="8.54"/>
		<rect id="Rectangle-1-Copy-311" x="111.59" y="141.46" class="st1" width="8.54" height="8.54"/>
		<rect id="Rectangle-1-Copy-310" x="111.59" y="150" class="st1" width="8.54" height="8.54"/>
		<rect id="Rectangle-1-Copy-315" x="103.05" y="132.93" class="st1" width="8.54" height="8.54"/>
		<rect id="Rectangle-1-Copy-316" x="103.05" y="115.86" class="st1" width="8.54" height="8.54"/>
		<rect id="Rectangle-1-Copy-319" x="94.52" y="115.86" class="st1" width="8.54" height="8.54"/>
		<rect id="Rectangle-1-Copy-322" x="85.98" y="98.78" class="st1" width="8.54" height="8.54"/>
		<rect id="Rectangle-1-Copy-325" x="77.44" y="98.78" class="st1" width="8.54" height="8.54"/>
		<rect id="Rectangle-1-Copy-321" x="94.52" y="107.32" class="st1" width="8.54" height="8.54"/>
		<rect id="Rectangle-1-Copy-323" x="85.98" y="90.25" class="st1" width="8.54" height="8.54"/>
		<rect id="Rectangle-1-Copy-314" x="103.05" y="141.46" class="st1" width="8.54" height="8.54"/>
		<rect id="Rectangle-1-Copy-317" x="103.05" y="124.39" class="st1" width="8.54" height="8.54"/>
		<rect id="Rectangle-1-Copy-320" x="94.52" y="124.39" class="st1" width="8.54" height="8.54"/>
		<rect id="Rectangle-1-Copy-324" x="85.98" y="107.32" class="st1" width="8.54" height="8.54"/>
		<rect id="Rectangle-1-Copy-318" x="111.59" y="124.39" class="st1" width="8.54" height="8.54"/>
		<rect id="Rectangle-1-Copy-313" x="103.05" y="150" class="st1" width="8.54" height="8.54"/>
	</g>
</g>
</svg>
